<svg xmlns="http://www.w3.org/2000/svg" version="1.1" xmlns:xlink="http://www.w3.org/1999/xlink" xmlns:svgjs="http://svgjs.dev/svgjs" width="300" height="300"><svg xmlns="http://www.w3.org/2000/svg" viewBox="0 0 300 300"><defs><style>.cls-1{fill:#fc5438;}.cls-2{fill:#fff;}</style></defs><g id="SvgjsG1243" data-name="Layer 2"><g id="SvgjsG1242" data-name="Layer 1"><path class="cls-1" d="M229.37,0H70.63A70.63,70.63,0,0,0,0,70.63V229.37A70.63,70.63,0,0,0,70.63,300H229.37A70.63,70.63,0,0,0,300,229.37V70.63A70.63,70.63,0,0,0,229.37,0"></path><path class="cls-2" d="M134.87,209.25c-2.36-3.37-5.09-6.59-7.5-9.85a85.69,85.69,0,0,1-17.28-48v-2.89a85.69,85.69,0,0,1,17.28-48c2.41-3.26,5.14-6.47,7.5-9.84,3.15-4.39,5.67-9.05,6.15-14.4.86-9.15-5.08-18.14-13.22-22.53-3.74-2-5.9-3.16-10.13-3.59L115.82,50H69.67A21.17,21.17,0,0,0,48.48,71.22V228.78A21.17,21.17,0,0,0,69.67,250h46.15a31.64,31.64,0,0,0,12-3.79c8.14-4.39,14.08-13.38,13.22-22.54-.48-5.35-3-10-6.15-14.39M80.48,165a15,15,0,1,1,15-15,15.06,15.06,0,0,1-15,15"></path><path class="cls-2" d="M229.88,250H176.24a21.65,21.65,0,0,1-21.64-21.64,21.92,21.92,0,0,1,4.11-12.76,21.12,21.12,0,0,1,10.91-7.84c9.25-2.82,17.92-7.39,24.84-14.22a51.44,51.44,0,0,0,8.45-10.87c2.62-4.55,4.5-9.68,8.53-13.24,7.41-6.56,20.09-7.2,28.65-2.61a21.77,21.77,0,0,1,11.43,19v42.51A21.64,21.64,0,0,1,229.88,250M216.4,201.76a15.43,15.43,0,1,0,15.4,15.4,15.37,15.37,0,0,0-15.4-15.4"></path><path class="cls-2" d="M229.88,50H176.24A21.65,21.65,0,0,0,154.6,71.67a22,22,0,0,0,4.11,12.77,21.11,21.11,0,0,0,10.91,7.83c9.25,2.82,17.92,7.39,24.84,14.23a51.12,51.12,0,0,1,8.45,10.86c2.62,4.56,4.5,9.68,8.53,13.25,7.41,6.55,20.09,7.2,28.65,2.61a21.8,21.8,0,0,0,11.43-19V71.67A21.65,21.65,0,0,0,229.88,50M216.4,98.24a15.42,15.42,0,1,1,15.4-15.39,15.37,15.37,0,0,1-15.4,15.39"></path></g></g></svg><style>@media (prefers-color-scheme: light) { :root { filter: none; } }
@media (prefers-color-scheme: dark) { :root { filter: none; } }
</style></svg>